{"title":"Sixteen 2013 DVDRip x264 Hindi ESubs - ViZNU [P2PDL]","uid":8992551,"size":484895868,"categoryP":"video","categoryS":"movies","magnet":"?xt=urn:btih:4729871c9a7863ea504de358c088041db2502de9&amp;dn=Sixteen+2013+DVDRip+x264+Hindi+ESubs+-+ViZNU+%5BP2PDL%5D&amp;tr=udp%3A%2F%2Ftracker.openbittorrent.com%3A80&amp;tr=udp%3A%2F%2Fopen.demonii.com%3A1337&amp;tr=udp%3A%2F%2Ftracker.coppersurfer.tk%3A6969&amp;tr=udp%3A%2F%2Fexodus.desync.com%3A6969","seeders":1,"leechers":0,"uploader":"ValidusVyto","files":-1,"time":1380820812,"description":"_______ Visit us at our Semi Public Bittorrent Community ________\n  &lt;a href=&quot;\nhttp://p2pdl.com&quot; rel=&quot;nofollow&quot; target=&quot;_NEW&quot;&gt;\nhttp://p2pdl.com&lt;/a&gt;  _____________________________ &lt;a href=&quot; http://p2pdl.com&quot; rel=&quot;nofollow&quot; target=&quot;_NEW&quot;&gt; http://p2pdl.com&lt;/a&gt;\n\n\n\nSixteen 2013 DVDRip x264 Hindi ESubs - ViZNU\n\n\nGenre: Drama | Romance | Thriller \nPlot: Welcome to sixteen's world. A world where growing up has speeded up multifold\ntimes from the time you and me were kids. Once upon a time, it was the age of innocence,\nthe age of sweetness, ... \t\t\t\t\t\t\t\t\t\t\t\t\t\t\t\nDirector: Chris Nelson\nStars:  Bob Odenkirk, Vincent D'Onofrio, Alicia Silverstone.\nRated: N/a\n\nIMDb: &lt;a href=&quot;\nhttp://www.imdb.com/title/tt2976172/&quot; rel=&quot;nofollow&quot; target=&quot;_NEW&quot;&gt;\nhttp://www.imdb.com/title/tt2976172/&lt;/a&gt;\n\n\nFormat                         : MPEG-4\nFile size                      : 452 MiB\nDuration                       : 2h 16mn\nOverall bit rate               : 462 Kbps\n\nVideo\nFormat                         : AVC\nBit rate                       : 419 Kbps\nWidth                          : 640 pixels\nHeight                         : 272 pixels\nDisplay aspect ratio           : 2.35:1\nFrame rate mode                : Constant\nFrame rate                     : 25.000 fps\nBit depth                      : 10 bits\nStream size                    : 410 MiB (91%)\nWriting library                : x264 core 138 r2358\n\nAudio\nFormat                         : AAC\nBit rate mode                  : Variable\nBit rate                       : 39.8 Kbps\nChannel(s)                     : 2 channels\nChannel positions              : Front: L R\nSampling rate                  : 44.1 KHz\nStream size                    : 39.0 MiB (9%)\nLanguage                       : Hindi\n\nSubtitle                       : Yes (English)\n\nSource                         : NTSC DVD9\n &lt;a href=&quot;\nhttp://ultraimg.com/images/t5YI.png&quot; rel=&quot;nofollow&quot; target=&quot;_NEW&quot;&gt;\nhttp://ultraimg.com/images/t5YI.png&lt;/a&gt; &lt;a href=&quot;\nhttp://ultraimg.com/images/1WpzG.png&quot; rel=&quot;nofollow&quot; target=&quot;_NEW&quot;&gt;\nhttp://ultraimg.com/images/1WpzG.png&lt;/a&gt; &lt;a href=&quot;\nhttp://ultraimg.com/images/OTgIu.png&quot; rel=&quot;nofollow&quot; target=&quot;_NEW&quot;&gt;\nhttp://ultraimg.com/images/OTgIu.png&lt;/a&gt; &lt;a href=&quot;\nhttp://ultraimg.com/images/8QWk1.png&quot; rel=&quot;nofollow&quot; target=&quot;_NEW&quot;&gt;\nhttp://ultraimg.com/images/8QWk1.png&lt;/a&gt; &lt;a href=&quot;\nhttp://ultraimg.com/images/XpVL.png&quot; rel=&quot;nofollow&quot; target=&quot;_NEW&quot;&gt;\nhttp://ultraimg.com/images/XpVL.png&lt;/a&gt; &lt;a href=&quot;\nhttp://ultraimg.com/images/iHlKV.png&quot; rel=&quot;nofollow&quot; target=&quot;_NEW&quot;&gt;\nhttp://ultraimg.com/images/iHlKV.png&lt;/a&gt; &lt;a href=&quot;\nhttp://ultraimg.com/images/yqcFf.png&quot; rel=&quot;nofollow&quot; target=&quot;_NEW&quot;&gt;\nhttp://ultraimg.com/images/yqcFf.png&lt;/a&gt; &lt;a href=&quot;\nhttp://ultraimg.com/images/tUsrm.png&quot; rel=&quot;nofollow&quot; target=&quot;_NEW&quot;&gt;\nhttp://ultraimg.com/images/tUsrm.png&lt;/a&gt;\n\n----------------------------------------------------------------------------------------------------\n\n\nEncoded using revolutionary 10bit encoding, which enables us to provide you more crispier \nand sharper images at small sizes, just make sure you follow our instructions without a fault.\nRecommend to you to use latest version of VLC player. Install K-Lite Codec Pack or shark007 codecs\nin case of any kind of problem in playback (For non-VLC Media Player users). Alternatively, install\nCore AVC codecs, the fastest decoder that there is coupled with Community Center Codec Pack and play\non Windows Media Player Classic. Check sample to be sure.\nEnjoy!\n\nEncoder Notes:Looking For Early Access To Anything You Can Provide DVDScr, R5, DVDR, BluRay, Direct\nAudio, Music Releases and Seedboxes. We require dedicated servers, so as to do more \nand fast releases of movies.\nIf You Got anything to offer please contact us at &quot;&lt;a class=&quot;__cf_email__&quot; href=&quot;/cdn-cgi/l/email-protection&quot; data-cfemail=&quot;b7c7c5d0f7dfc2c4df99d4d8da&quot;&gt;[email&amp;#160;protected]&lt;/a&gt;&lt;script cf-hash='f9e31' type=&quot;text/javascript&quot;&gt;\n/* &lt;![CDATA[ */!function(){try{var t=&quot;currentScript&quot;in document?document.currentScript:function(){for(var t=document.getElementsByTagName(&quot;script&quot;),e=t.length;e--;)if(t[e].getAttribute(&quot;cf-hash&quot;))return t[e]}();if(t&amp;&amp;t.previousSibling){var e,r,n,i,c=t.previousSibling,a=c.getAttribute(&quot;data-cfemail&quot;);if(a){for(e=&quot;&quot;,r=parseInt(a.substr(0,2),16),n=2;a.length-n;n+=2)i=parseInt(a.substr(n,2),16)^r,e+=String.fromCharCode(i);e=document.createTextNode(e),c.parentNode.replaceChild(e,c)}}}catch(u){}}();/* ]]&gt; */&lt;/script&gt;&quot;.","torrent":{"xt":"urn:btih:4729871c9a7863ea504de358c088041db2502de9","amp;dn":"Sixteen+2013+DVDRip+x264+Hindi+ESubs+-+ViZNU+%5BP2PDL%5D","amp;tr":["udp%3A%2F%2Ftracker.openbittorrent.com%3A80","udp%3A%2F%2Fopen.demonii.com%3A1337","udp%3A%2F%2Ftracker.coppersurfer.tk%3A6969","udp%3A%2F%2Fexodus.desync.com%3A6969"],"infoHash":"4729871c9a7863ea504de358c088041db2502de9","infoHashBuffer":{"type":"Buffer","data":[71,41,135,28,154,120,99,234,80,77,227,88,192,136,4,29,178,80,45,233]},"announce":[],"urlList":[]}}